<svg width="24" height="24" viewBox="0 0 24 24" fill="none" xmlns="http://www.w3.org/2000/svg">
<rect x="2" y="4" width="20" height="14" rx="2" stroke="currentColor" stroke-width="1.5" fill="none"/>
<circle cx="6" cy="8" r="1" fill="currentColor"/>
<circle cx="6" cy="11" r="1" fill="currentColor"/>
<circle cx="6" cy="14" r="1" fill="currentColor"/>
<path d="M10 7L14 7" stroke="currentColor" stroke-width="1.5" stroke-linecap="round"/>
<path d="M10 10L16 10" stroke="currentColor" stroke-width="1.5" stroke-linecap="round"/>
<path d="M10 13L14 13" stroke="currentColor" stroke-width="1.5" stroke-linecap="round"/>
<path d="M18 9L19 8M19 8L20 7M19 8L18 7" stroke="currentColor" stroke-width="1.5" stroke-linecap="round"/>
<path d="M18 12L19 11M19 11L20 10M19 11L18 10" stroke="currentColor" stroke-width="1.5" stroke-linecap="round"/>
<path d="M2 18L4 20M6 18L4 20M4 20L2 22M4 20L6 22" stroke="currentColor" stroke-width="1.5" stroke-linecap="round"/>
<path d="M10 18L12 20M14 18L12 20M12 20L10 22M12 20L14 22" stroke="currentColor" stroke-width="1.5" stroke-linecap="round"/>
<path d="M18 18L20 20M22 18L20 20M20 20L18 22M20 20L22 22" stroke="currentColor" stroke-width="1.5" stroke-linecap="round"/>
</svg>